<?xml version="1.0" encoding="UTF-8"?>
<svg id="Layer_1" data-name="Layer 1" xmlns="http://www.w3.org/2000/svg" viewBox="0 0 296.14 67.89">
  <defs>
    <style>
      .cls-1 {
        fill: #cdd1d6;
      }

      .cls-1, .cls-2, .cls-3 {
        stroke-width: 0px;
      }

      .cls-2 {
        fill: none;
      }

      .cls-3 {
        fill: #f15b27;
      }
    </style>
  </defs>
  <g>
    <path class="cls-1" d="M135.96,11.49l-12.15,26.99h5.13l2.68-6.25h13.5l2.67,6.25h5.28l-12.18-26.99h-4.93ZM133.32,28.31l5.07-11.81,5.06,11.81h-10.13Z"/>
    <polygon class="cls-1" points="153.43 15.73 159.21 15.73 159.21 38.48 164.19 38.48 164.19 11.49 153.43 11.49 153.43 15.73"/>
    <polygon class="cls-1" points="190.99 11.49 185.97 11.49 185.97 38.48 205.1 38.48 205.1 34.24 190.99 34.24 190.99 11.49"/>
    <rect class="cls-1" x="211" y="11.49" width="5.01" height="26.99"/>
    <polygon class="cls-1" points="225.23 38.48 230.24 38.48 230.24 28.11 243.27 28.11 243.27 23.94 230.24 23.94 230.24 15.73 244.93 15.73 244.93 11.49 225.23 11.49 225.23 38.48"/>
    <polygon class="cls-1" points="248.44 15.73 257.38 15.73 257.38 38.48 262.4 38.48 262.4 15.73 271.34 15.73 271.34 11.49 248.44 11.49 248.44 15.73"/>
    <path class="cls-1" d="M295.27,27.36c-.58-.91-1.34-1.65-2.29-2.2-.95-.55-1.99-1-3.12-1.35-1.13-.35-2.28-.65-3.43-.91-1.16-.26-2.2-.53-3.14-.81-.94-.28-1.7-.67-2.28-1.18-.58-.5-.87-1.16-.87-1.99,0-.67.2-1.28.6-1.83.4-.55,1.03-1,1.91-1.33.87-.33,1.99-.5,3.36-.5,1.18,0,2.42.17,3.7.52,1.29.35,2.53.88,3.74,1.6l1.58-3.9c-1.18-.77-2.57-1.36-4.16-1.78-1.6-.41-3.2-.62-4.82-.62-2.47,0-4.5.37-6.11,1.1-1.61.73-2.8,1.71-3.59,2.93s-1.18,2.56-1.18,4.03.29,2.62.87,3.55,1.34,1.66,2.29,2.22,2,1.01,3.14,1.37,2.29.66,3.43.91c1.14.24,2.19.51,3.12.81s1.7.69,2.29,1.2.89,1.16.89,1.99c0,.67-.21,1.27-.62,1.79-.41.53-1.06.94-1.93,1.25-.87.31-2.02.46-3.43.46-1.67,0-3.3-.28-4.9-.85-1.6-.57-2.93-1.27-4.01-2.12l-1.74,3.9c1.16.95,2.69,1.73,4.61,2.33s3.93.91,6.03.91c2.47,0,4.51-.37,6.13-1.1,1.62-.73,2.82-1.71,3.6-2.93s1.18-2.55,1.18-3.99c0-1.42-.29-2.58-.87-3.49Z"/>
  </g>
  <g>
    <path class="cls-3" d="M134.72,55.9l-1.42-.46c-.18.9-.45,1.67-.8,2.32l-3.17-3.15c.48-.27.9-.54,1.24-.78.53-.39.91-.8,1.15-1.21s.36-.87.36-1.36c0-.57-.13-1.04-.4-1.44s-.63-.71-1.11-.92c-.48-.22-1.04-.32-1.69-.32-.7,0-1.31.12-1.83.36-.52.24-.93.58-1.21,1.01s-.43.94-.43,1.52c0,.33.05.66.17.98s.29.65.53.98c.21.29.5.62.85.97-.59.34-1.1.67-1.51,1-.57.45-.98.91-1.23,1.39-.26.48-.39,1-.39,1.58,0,.66.19,1.25.59,1.75.39.5.93.9,1.6,1.18s1.45.42,2.32.42c1.09,0,2.07-.23,2.94-.68.5-.26.94-.59,1.35-.98l1.72,1.71.99-1.18-1.74-1.73c.53-.83.91-1.8,1.14-2.95ZM127.52,50.28c.32-.29.77-.43,1.35-.43s.98.13,1.27.4.44.6.44,1.02c0,.31-.09.59-.27.86-.18.26-.48.54-.9.84-.28.2-.64.42-1.07.66-.31-.32-.57-.59-.75-.81-.22-.26-.36-.5-.44-.72-.08-.22-.12-.44-.12-.67,0-.47.16-.85.49-1.14ZM130.66,59.69c-.66.36-1.4.53-2.23.53-.58,0-1.08-.09-1.52-.26-.44-.17-.77-.41-1.01-.73s-.36-.67-.36-1.08c0-.38.09-.73.27-1.05.18-.32.48-.64.89-.96.31-.24.72-.51,1.22-.78l3.66,3.64c-.28.28-.59.5-.93.68Z"/>
    <polygon class="cls-3" points="148.01 55.79 154.46 55.79 154.46 54.23 148.01 54.23 148.01 50.27 155.26 50.27 155.26 48.67 146.17 48.67 146.17 61.55 155.51 61.55 155.51 59.95 148.01 59.95 148.01 55.79"/>
    <polygon class="cls-3" points="169.57 58.27 161.84 48.67 160.33 48.67 160.33 61.55 162.17 61.55 162.17 51.95 169.9 61.55 171.41 61.55 171.41 48.67 169.57 48.67 169.57 58.27"/>
    <path class="cls-3" d="M179.35,51.56c.46-.44,1-.78,1.64-1.03.63-.24,1.31-.37,2.05-.37s1.39.12,2.01.36c.62.24,1.19.62,1.72,1.13l1.14-1.14c-.59-.66-1.31-1.16-2.15-1.49-.85-.33-1.78-.5-2.8-.5s-1.93.16-2.76.49c-.84.32-1.56.78-2.18,1.38s-1.1,1.29-1.44,2.09c-.34.8-.51,1.67-.51,2.63s.17,1.83.51,2.63c.34.8.82,1.49,1.43,2.09.61.59,1.34,1.06,2.17,1.38s1.75.49,2.74.49c.91,0,1.79-.14,2.64-.41s1.6-.68,2.24-1.22v-5.02h-1.76v4.18c-.33.22-.68.39-1.04.51-.63.22-1.29.32-1.98.32-.73,0-1.42-.12-2.04-.37s-1.17-.59-1.63-1.04c-.46-.45-.82-.98-1.07-1.58-.25-.61-.38-1.26-.38-1.96s.13-1.37.38-1.98c.25-.61.6-1.13,1.06-1.57Z"/>
    <rect class="cls-3" x="193.15" y="48.67" width="1.84" height="12.88"/>
    <polygon class="cls-3" points="209.93 58.27 202.2 48.67 200.69 48.67 200.69 61.55 202.53 61.55 202.53 51.95 210.26 61.55 211.77 61.55 211.77 48.67 209.93 48.67 209.93 58.27"/>
    <polygon class="cls-3" points="219.31 55.79 225.77 55.79 225.77 54.23 219.31 54.23 219.31 50.27 226.56 50.27 226.56 48.67 217.47 48.67 217.47 61.55 226.82 61.55 226.82 59.95 219.31 59.95 219.31 55.79"/>
    <polygon class="cls-3" points="233.48 55.79 239.93 55.79 239.93 54.23 233.48 54.23 233.48 50.27 240.73 50.27 240.73 48.67 231.64 48.67 231.64 61.55 240.98 61.55 240.98 59.95 233.48 59.95 233.48 55.79"/>
    <path class="cls-3" d="M253.71,57.1c.8-.36,1.41-.87,1.84-1.54.43-.67.64-1.47.64-2.4s-.22-1.74-.64-2.41-1.04-1.19-1.84-1.54c-.8-.36-1.76-.53-2.89-.53h-5.02v12.88h1.84v-3.92h3.18c.28,0,.55-.01.82-.03l2.77,3.95h2.01l-3.06-4.32c.12-.05.24-.08.36-.13ZM250.77,56.07h-3.13v-5.79h3.13c1.18,0,2.07.25,2.68.75.61.5.91,1.21.91,2.14s-.3,1.63-.91,2.14c-.61.51-1.5.76-2.68.76Z"/>
    <rect class="cls-3" x="261.02" y="48.67" width="1.84" height="12.88"/>
    <polygon class="cls-3" points="277.8 58.27 270.07 48.67 268.56 48.67 268.56 61.55 270.4 61.55 270.4 51.95 278.13 61.55 279.64 61.55 279.64 48.67 277.8 48.67 277.8 58.27"/>
    <path class="cls-3" d="M294.26,59.22c-.33.22-.68.39-1.04.51-.63.22-1.29.32-1.98.32-.73,0-1.42-.12-2.04-.37s-1.17-.59-1.63-1.04c-.46-.45-.82-.98-1.07-1.58-.25-.61-.38-1.26-.38-1.96s.13-1.37.38-1.98c.25-.61.61-1.13,1.07-1.57.46-.44,1-.78,1.64-1.03.63-.24,1.31-.37,2.05-.37s1.39.12,2.01.36c.62.24,1.19.62,1.72,1.13l1.14-1.14c-.59-.66-1.31-1.16-2.15-1.49-.85-.33-1.78-.5-2.8-.5s-1.93.16-2.76.49c-.84.32-1.56.78-2.18,1.38s-1.1,1.29-1.44,2.09c-.34.8-.51,1.67-.51,2.63s.17,1.83.51,2.63c.34.8.82,1.49,1.43,2.09.61.59,1.34,1.06,2.17,1.38s1.75.49,2.74.49c.91,0,1.79-.14,2.64-.41s1.6-.68,2.24-1.22v-5.02h-1.76v4.18h0Z"/>
  </g>
  <g>
    <polygon class="cls-1" points="36.3 51.58 45.96 67.89 0 67.89 10.26 51.58 33.04 15.31 42.67 0 52.31 15.31 42.67 30.65 29.53 51.58 36.3 51.58"/>
    <line class="cls-2" x1="66.09" y1="67.89" x2="57.01" y2="53.43"/>
    <polygon class="cls-3" points="112.38 51.58 112.38 67.89 85.36 67.89 75.1 51.58 112.38 51.58"/>
    <polygon class="cls-1" points="112.38 26.29 112.38 42.6 85.36 42.6 75.1 26.29 112.38 26.29"/>
    <polygon class="cls-1" points="112.38 0 112.38 16.31 68.84 16.31 58.58 0 112.38 0"/>
    <polygon class="cls-3" points="85.36 67.89 66.09 67.89 57 53.43 56.93 53.33 42.67 30.65 52.31 15.31 75.1 51.58 85.36 67.89"/>
  </g>
</svg>